<?xml version="1.0" encoding="iso-8859-1"?>
<!-- Generator: Adobe Illustrator 19.1.0, SVG Export Plug-In . SVG Version: 6.00 Build 0)  -->
<svg version="1.1" id="Capa_1" xmlns="http://www.w3.org/2000/svg" xmlns:xlink="http://www.w3.org/1999/xlink" x="0px" y="0px"
	 viewBox="0 0 48 48" style="enable-background:new 0 0 48 48;" xml:space="preserve">
<g id="profile_1_">
	<g>
		<path d="M24,0C10.745,0,0,10.745,0,24c0,13.255,10.745,24,24,24s24-10.745,24-24C48,10.745,37.255,0,24,0z M24,44
			c-4.003,0-7.726-1.194-10.856-3.227l1.647-8.062l0.022-0.133c0.268-1.987,1.982-3.485,3.987-3.485h1.195
			C21.219,29.725,22.572,30,24,30c1.428,0,2.781-0.275,4.006-0.906h1.374c2.005,0,3.718,1.498,3.986,3.484l1.65,8.097
			C31.855,42.772,28.069,44,24,44z M18,19c0-3.212,2.787-6,6-6c3.213,0,6,2.788,6,6c0,3.416-3.005,7-6,7C21.005,26,18,22.416,18,19z
			 M38.498,37.737l-1.177-5.765c-0.439-3.049-2.591-5.503-5.39-6.451C33.117,23.74,34,21.166,34,19c0-5.427-4.573-10-10-10
			c-5.427,0-10,4.573-10,10c0,2.185,0.896,4.779,2.102,6.57c-2.728,0.983-4.812,3.406-5.244,6.403l-1.21,5.925
			C6.16,34.296,4,29.399,4,24C4,12.972,12.972,4,24,4c11.028,0,20,8.972,20,20C44,29.321,41.898,34.15,38.498,37.737z"/>
	</g>
</g>
<g>
</g>
<g>
</g>
<g>
</g>
<g>
</g>
<g>
</g>
<g>
</g>
<g>
</g>
<g>
</g>
<g>
</g>
<g>
</g>
<g>
</g>
<g>
</g>
<g>
</g>
<g>
</g>
<g>
</g>
</svg>
